<svg xmlns="http://www.w3.org/2000/svg" xmlns:xlink="http://www.w3.org/1999/xlink" viewBox="0 0 112.94 117.66"><defs><style>.cls-1{fill:#fff;}.cls-2{fill:url(#Degradado_sin_nombre_30);}.cls-3{fill:url(#Degradado_sin_nombre_29);}.cls-4{fill:#4618b7;}</style><linearGradient id="Degradado_sin_nombre_30" x1="44.89" y1="58.83" x2="107.89" y2="58.83" gradientUnits="userSpaceOnUse"><stop offset="0" stop-color="#6badff"/><stop offset="1" stop-color="#7f4aff"/></linearGradient><linearGradient id="Degradado_sin_nombre_29" x1="795.58" y1="-28.7" x2="855.94" y2="-28.7" gradientTransform="translate(861.27 30.13) rotate(180)" gradientUnits="userSpaceOnUse"><stop offset="0" stop-color="#7f4aff"/><stop offset="1" stop-color="#6badff"/></linearGradient></defs><title>darkModeIconAsset 1</title><g id="Layer_2" data-name="Layer 2"><g id="OBJECTS"><path class="cls-1" d="M45.35,112.1,107.89,5.89Z"/><path d="M49.67,114.63l54.69-92.88,7.85-13.34c3.27-5.56-5.37-10.59-8.64-5.05L48.89,96.24,41,109.58c-3.27,5.56,5.37,10.59,8.63,5l54.69-92.88,7.85-13.34c3.27-5.56-5.37-10.59-8.64-5.05L48.89,96.24,41,109.58C37.77,115.14,46.41,120.17,49.67,114.63Z"/><path class="cls-1" d="M64.93,112.68,5,5Z"/><path d="M69.24,110.16,16.84,16,9.31,2.46C6.18-3.17-2.46,1.87.67,7.5l52.41,94.18,7.53,13.53c3.13,5.62,11.77.58,8.63-5L16.84,16,9.31,2.46C6.18-3.17-2.46,1.87.67,7.5l52.41,94.18,7.53,13.53C63.74,120.83,72.38,115.79,69.24,110.16Z"/><polygon class="cls-2" points="87.24 19.52 107.89 28.05 65.54 98.14 44.89 89.61 87.24 19.52"/><polygon class="cls-3" points="26.28 19.9 65.69 89.99 44.74 97.77 5.33 27.68 26.28 19.9"/><circle class="cls-4" cx="55.21" cy="93.88" r="11.27" transform="translate(-31.54 28.03) rotate(-22.34)"/><path class="cls-4" d="M86.29,23.79A11.28,11.28,0,1,1,97.57,35.06,11.28,11.28,0,0,1,86.29,23.79Z"/><path class="cls-4" d="M4.53,23.79A11.28,11.28,0,1,1,15.8,35.06,11.28,11.28,0,0,1,4.53,23.79Z"/></g></g></svg>